<svg width="111" height="17" viewBox="0 0 111 17" fill="none" xmlns="http://www.w3.org/2000/svg">
<path d="M4.626 13.036C3.906 13.036 3.546 12.844 3.546 12.46V2.758H0.684C0.492 2.758 0.354 2.686 0.27 2.542C0.186 2.398 0.144 2.17 0.144 1.858V1.3C0.144 0.987999 0.186 0.759999 0.27 0.616C0.354 0.471999 0.492 0.399999 0.684 0.399999H9.198C9.39 0.399999 9.528 0.471999 9.612 0.616C9.696 0.759999 9.738 0.987999 9.738 1.3V1.858C9.738 2.17 9.696 2.398 9.612 2.542C9.528 2.686 9.39 2.758 9.198 2.758H6.336V12.46C6.336 12.844 5.976 13.036 5.256 13.036H4.626ZM10.2562 13.036C9.5242 13.036 9.1582 12.904 9.1582 12.64C9.1582 12.592 9.1822 12.484 9.2302 12.316L13.1902 0.741999C13.2862 0.489999 13.6282 0.364 14.2162 0.364H15.1522C15.7522 0.364 16.0942 0.489999 16.1782 0.741999L20.1382 12.316C20.1742 12.436 20.1922 12.544 20.1922 12.64C20.1922 12.904 19.8922 13.036 19.2922 13.036H18.5002C17.9122 13.036 17.5762 12.91 17.4922 12.658L16.7722 10.462H12.5242L11.8042 12.658C11.7202 12.91 11.4442 13.036 10.9762 13.036H10.2562ZM15.9982 8.086L14.9722 4.882C14.8882 4.642 14.7982 4.258 14.7022 3.73H14.6302C14.6182 3.802 14.5882 3.964 14.5402 4.216C14.5042 4.456 14.4442 4.678 14.3602 4.882L13.2982 8.086H15.9982ZM24.8233 13.144C23.9713 13.144 23.2273 13.06 22.5913 12.892C21.9553 12.724 21.4573 12.508 21.0973 12.244C20.7613 12.016 20.5933 11.788 20.5933 11.56C20.5933 11.38 20.6593 11.164 20.7913 10.912C20.9233 10.66 21.0793 10.438 21.2593 10.246C21.4393 10.054 21.5893 9.958 21.7093 9.958C21.7813 9.958 21.9493 10.03 22.2133 10.174C22.5973 10.366 22.9453 10.516 23.2573 10.624C23.5693 10.732 23.9353 10.786 24.3553 10.786C24.8233 10.786 25.2193 10.696 25.5433 10.516C25.8793 10.324 26.0473 9.994 26.0473 9.526C26.0473 9.142 25.8913 8.842 25.5793 8.626C25.2793 8.398 24.7873 8.146 24.1033 7.87L23.2753 7.51C22.5193 7.15 21.9253 6.706 21.4933 6.178C21.0613 5.638 20.8453 4.876 20.8453 3.892C20.8453 3.076 21.0433 2.398 21.4393 1.858C21.8473 1.306 22.3753 0.903999 23.0233 0.651999C23.6713 0.388 24.3673 0.256 25.1113 0.256C25.7233 0.256 26.2753 0.322 26.7673 0.454C27.2713 0.573999 27.6673 0.735999 27.9553 0.94C28.2193 1.132 28.3513 1.324 28.3513 1.516C28.3513 1.684 28.2973 1.894 28.1893 2.146C28.0813 2.398 27.9493 2.62 27.7933 2.812C27.6373 2.992 27.4933 3.082 27.3613 3.082C27.3013 3.082 27.1993 3.052 27.0553 2.992C26.9233 2.932 26.8093 2.884 26.7133 2.848C26.2813 2.704 25.8313 2.632 25.3633 2.632C24.7393 2.632 24.3013 2.734 24.0493 2.938C23.8093 3.142 23.6893 3.376 23.6893 3.64C23.6893 3.952 23.7733 4.21 23.9413 4.414C24.1093 4.618 24.3133 4.786 24.5533 4.918C24.7933 5.038 25.1473 5.2 25.6153 5.404C26.2993 5.692 26.8573 5.968 27.2893 6.232C27.7213 6.484 28.0933 6.856 28.4053 7.348C28.7293 7.828 28.8913 8.446 28.8913 9.202C28.8913 10.126 28.6933 10.882 28.2973 11.47C27.9133 12.058 27.4153 12.484 26.8033 12.748C26.1913 13.012 25.5313 13.144 24.8233 13.144ZM31.5193 13.036C30.7993 13.036 30.4393 12.844 30.4393 12.46V0.94C30.4393 0.556 30.7993 0.364 31.5193 0.364H32.1493C32.8693 0.364 33.2293 0.556 33.2293 0.94V5.764L33.3013 5.782L36.4333 0.705999C36.5653 0.478 36.9253 0.364 37.5133 0.364H38.3593C39.0313 0.364 39.3673 0.454 39.3673 0.633999C39.3673 0.741999 39.3193 0.868 39.2233 1.012L35.7493 6.34L39.6913 12.388C39.7873 12.532 39.8353 12.658 39.8353 12.766C39.8353 12.946 39.4993 13.036 38.8273 13.036H37.7833C37.1833 13.036 36.8173 12.922 36.6853 12.694L33.3013 7.222L33.2293 7.24V12.46C33.2293 12.844 32.8693 13.036 32.1493 13.036H31.5193Z" fill="#B4ACF9"/>
<path d="M46.8944 9.994C46.5824 9.994 46.3424 9.88 46.1744 9.652L43.9604 5.692C43.8044 5.428 43.6724 5.194 43.5644 4.99L43.4924 5.008V5.89V12.46C43.4924 12.844 43.1324 13.036 42.4124 13.036H41.8904C41.1704 13.036 40.8104 12.844 40.8104 12.46V0.94C40.8104 0.556 41.1704 0.364 41.8904 0.364H42.8444C43.4204 0.364 43.7984 0.526 43.9784 0.85L46.9664 6.178L47.1464 6.484L47.3084 6.178L50.3504 0.85C50.5304 0.526 50.9084 0.364 51.4844 0.364H52.4204C53.1404 0.364 53.5004 0.556 53.5004 0.94V12.46C53.5004 12.844 53.1404 13.036 52.4204 13.036H51.8984C51.1784 13.036 50.8184 12.844 50.8184 12.46V5.89V5.008L50.7464 4.99C50.6384 5.194 50.5064 5.428 50.3504 5.692L48.1364 9.652C47.9684 9.88 47.7284 9.994 47.4164 9.994H46.8944ZM58.1583 13.144C57.2343 13.144 56.5563 12.904 56.1243 12.424C55.7043 11.944 55.4943 11.308 55.4943 10.516C55.4943 9.556 55.8423 8.758 56.5383 8.122C57.2463 7.486 58.6203 7.168 60.6603 7.168V6.574C60.6603 6.226 60.5463 5.968 60.3183 5.8C60.1023 5.632 59.7483 5.548 59.2563 5.548C58.8483 5.548 58.4883 5.59 58.1763 5.674C57.8763 5.758 57.6063 5.854 57.3663 5.962C57.1263 6.07 56.9883 6.124 56.9523 6.124C56.8323 6.124 56.7003 6.034 56.5563 5.854C56.4123 5.674 56.2863 5.47 56.1783 5.242C56.0703 5.002 56.0163 4.816 56.0163 4.684C56.0163 4.48 56.1663 4.282 56.4663 4.09C56.7663 3.898 57.1803 3.742 57.7083 3.622C58.2363 3.502 58.8183 3.442 59.4543 3.442C60.8103 3.442 61.7943 3.712 62.4063 4.252C63.0183 4.78 63.3243 5.512 63.3243 6.448V9.832C63.3243 10.384 63.3363 10.804 63.3603 11.092C63.3963 11.38 63.4383 11.698 63.4863 12.046C63.5223 12.202 63.5403 12.334 63.5403 12.442C63.5403 12.634 63.2943 12.778 62.8023 12.874C62.3223 12.97 61.8963 13.018 61.5243 13.018C61.3083 13.018 61.1583 12.934 61.0743 12.766C60.9903 12.586 60.9243 12.394 60.8763 12.19C60.8403 11.986 60.8163 11.848 60.8043 11.776C60.7323 11.908 60.5883 12.082 60.3723 12.298C60.1563 12.502 59.8563 12.694 59.4723 12.874C59.0883 13.054 58.6503 13.144 58.1583 13.144ZM59.0403 11.038C59.3763 11.038 59.6943 10.93 59.9943 10.714C60.2943 10.498 60.5163 10.228 60.6603 9.904V8.914C58.9803 8.914 58.1403 9.358 58.1403 10.246C58.1403 10.486 58.2183 10.678 58.3743 10.822C58.5303 10.966 58.7523 11.038 59.0403 11.038ZM66.7429 13.036C66.0229 13.036 65.6629 12.844 65.6629 12.46V6.754C65.6629 6.226 65.6449 5.824 65.6089 5.548C65.5849 5.26 65.5489 4.942 65.5009 4.594C65.4649 4.426 65.4469 4.3 65.4469 4.216C65.4469 4.024 65.6869 3.88 66.1669 3.784C66.6589 3.688 67.0909 3.64 67.4629 3.64C67.6789 3.64 67.8289 3.724 67.9129 3.892C67.9969 4.048 68.0569 4.222 68.0929 4.414C68.1409 4.606 68.1709 4.738 68.1829 4.81C68.4709 4.426 68.8549 4.102 69.3349 3.838C69.8149 3.574 70.3249 3.442 70.8649 3.442C71.7649 3.442 72.4309 3.682 72.8629 4.162C73.2949 4.63 73.5109 5.362 73.5109 6.358V12.46C73.5109 12.844 73.1509 13.036 72.4309 13.036H71.9269C71.2069 13.036 70.8469 12.844 70.8469 12.46V6.754C70.8469 6.382 70.7629 6.106 70.5949 5.926C70.4269 5.734 70.1509 5.638 69.7669 5.638C69.4429 5.638 69.1549 5.746 68.9029 5.962C68.6629 6.166 68.4709 6.406 68.3269 6.682V12.46C68.3269 12.844 67.9669 13.036 67.2469 13.036H66.7429ZM77.9864 13.144C77.0624 13.144 76.3844 12.904 75.9524 12.424C75.5324 11.944 75.3224 11.308 75.3224 10.516C75.3224 9.556 75.6704 8.758 76.3664 8.122C77.0744 7.486 78.4484 7.168 80.4884 7.168V6.574C80.4884 6.226 80.3744 5.968 80.1464 5.8C79.9304 5.632 79.5764 5.548 79.0844 5.548C78.6764 5.548 78.3164 5.59 78.0044 5.674C77.7044 5.758 77.4344 5.854 77.1944 5.962C76.9544 6.07 76.8164 6.124 76.7804 6.124C76.6604 6.124 76.5284 6.034 76.3844 5.854C76.2404 5.674 76.1144 5.47 76.0064 5.242C75.8984 5.002 75.8444 4.816 75.8444 4.684C75.8444 4.48 75.9944 4.282 76.2944 4.09C76.5944 3.898 77.0084 3.742 77.5364 3.622C78.0644 3.502 78.6464 3.442 79.2824 3.442C80.6384 3.442 81.6224 3.712 82.2344 4.252C82.8464 4.78 83.1524 5.512 83.1524 6.448V9.832C83.1524 10.384 83.1644 10.804 83.1884 11.092C83.2244 11.38 83.2664 11.698 83.3144 12.046C83.3504 12.202 83.3684 12.334 83.3684 12.442C83.3684 12.634 83.1224 12.778 82.6304 12.874C82.1504 12.97 81.7244 13.018 81.3524 13.018C81.1364 13.018 80.9864 12.934 80.9024 12.766C80.8184 12.586 80.7524 12.394 80.7044 12.19C80.6684 11.986 80.6444 11.848 80.6324 11.776C80.5604 11.908 80.4164 12.082 80.2004 12.298C79.9844 12.502 79.6844 12.694 79.3004 12.874C78.9164 13.054 78.4784 13.144 77.9864 13.144ZM78.8684 11.038C79.2044 11.038 79.5224 10.93 79.8224 10.714C80.1224 10.498 80.3444 10.228 80.4884 9.904V8.914C78.8084 8.914 77.9684 9.358 77.9684 10.246C77.9684 10.486 78.0464 10.678 78.2024 10.822C78.3584 10.966 78.5804 11.038 78.8684 11.038ZM89.091 16.816C86.235 16.816 84.807 15.988 84.807 14.332C84.807 13.864 84.945 13.45 85.221 13.09C85.509 12.73 85.917 12.448 86.445 12.244L86.463 12.172C86.211 12.052 86.019 11.872 85.887 11.632C85.755 11.392 85.689 11.122 85.689 10.822C85.689 10.162 86.049 9.622 86.769 9.202C85.797 8.686 85.311 7.834 85.311 6.646C85.311 5.554 85.665 4.75 86.373 4.234C87.093 3.706 88.029 3.442 89.181 3.442C89.649 3.442 90.111 3.49 90.567 3.586H93.465C93.657 3.586 93.795 3.658 93.879 3.802C93.963 3.946 94.005 4.174 94.005 4.486V4.792C94.005 5.356 93.861 5.638 93.573 5.638C93.453 5.638 93.297 5.62 93.105 5.584C92.925 5.548 92.793 5.512 92.709 5.476L92.673 5.548C92.781 5.668 92.871 5.836 92.943 6.052C93.015 6.256 93.051 6.454 93.051 6.646C93.051 7.678 92.709 8.446 92.025 8.95C91.353 9.454 90.471 9.706 89.379 9.706C88.851 9.706 88.509 9.754 88.353 9.85C88.197 9.934 88.119 10.078 88.119 10.282C88.119 10.498 88.257 10.648 88.533 10.732C88.809 10.816 89.277 10.906 89.937 11.002C90.153 11.026 90.489 11.074 90.945 11.146C91.797 11.314 92.475 11.59 92.979 11.974C93.483 12.346 93.735 12.94 93.735 13.756C93.735 14.368 93.543 14.902 93.159 15.358C92.775 15.826 92.229 16.186 91.521 16.438C90.825 16.69 90.015 16.816 89.091 16.816ZM89.181 7.78C89.577 7.78 89.901 7.684 90.153 7.492C90.405 7.288 90.531 6.982 90.531 6.574C90.531 6.178 90.405 5.878 90.153 5.674C89.901 5.47 89.577 5.368 89.181 5.368C88.785 5.368 88.461 5.47 88.209 5.674C87.957 5.878 87.831 6.178 87.831 6.574C87.831 6.982 87.957 7.288 88.209 7.492C88.461 7.684 88.785 7.78 89.181 7.78ZM89.289 14.71C89.901 14.71 90.363 14.632 90.675 14.476C90.987 14.32 91.143 14.104 91.143 13.828C91.143 13.552 90.939 13.348 90.531 13.216C90.135 13.096 89.415 13 88.371 12.928C88.071 13.036 87.831 13.174 87.651 13.342C87.483 13.522 87.399 13.708 87.399 13.9C87.399 14.152 87.549 14.35 87.849 14.494C88.161 14.638 88.641 14.71 89.289 14.71ZM99.3036 13.144C97.7196 13.144 96.5376 12.724 95.7576 11.884C94.9896 11.032 94.6056 9.856 94.6056 8.356C94.6056 6.664 94.9896 5.422 95.7576 4.63C96.5376 3.838 97.6116 3.442 98.9796 3.442C100.312 3.442 101.29 3.874 101.914 4.738C102.55 5.602 102.868 6.718 102.868 8.086C102.868 8.23 102.742 8.446 102.49 8.734C102.25 9.01 102.07 9.148 101.95 9.148H97.3596C97.4196 9.832 97.6236 10.318 97.9716 10.606C98.3196 10.894 98.8056 11.038 99.4296 11.038C99.7656 11.038 100.072 11.002 100.348 10.93C100.624 10.846 100.912 10.744 101.212 10.624C101.404 10.528 101.536 10.48 101.608 10.48C101.728 10.48 101.86 10.57 102.004 10.75C102.16 10.918 102.286 11.116 102.382 11.344C102.49 11.56 102.544 11.728 102.544 11.848C102.544 12.124 102.358 12.364 101.986 12.568C101.614 12.76 101.17 12.904 100.654 13C100.138 13.096 99.6876 13.144 99.3036 13.144ZM100.276 7.366C100.276 6.814 100.168 6.376 99.9516 6.052C99.7356 5.716 99.4116 5.548 98.9796 5.548C98.0916 5.548 97.5516 6.154 97.3596 7.366H100.276ZM105.749 13.036C105.029 13.036 104.669 12.844 104.669 12.46V6.754C104.669 6.226 104.651 5.824 104.615 5.548C104.591 5.26 104.555 4.942 104.507 4.594C104.471 4.426 104.453 4.3 104.453 4.216C104.453 4.024 104.693 3.88 105.173 3.784C105.665 3.688 106.097 3.64 106.469 3.64C106.685 3.64 106.835 3.724 106.919 3.892C107.003 4.048 107.063 4.222 107.099 4.414C107.147 4.606 107.177 4.738 107.189 4.81C107.417 4.39 107.681 4.06 107.981 3.82C108.293 3.568 108.683 3.442 109.151 3.442C109.559 3.442 109.829 3.526 109.961 3.694C110.105 3.85 110.177 4.09 110.177 4.414C110.177 4.666 110.123 4.984 110.015 5.368C109.907 5.74 109.775 5.926 109.619 5.926C109.547 5.926 109.421 5.902 109.241 5.854C109.061 5.806 108.905 5.782 108.773 5.782C108.449 5.782 108.161 5.878 107.909 6.07C107.669 6.25 107.477 6.454 107.333 6.682V12.46C107.333 12.844 106.973 13.036 106.253 13.036H105.749Z" fill="white" fill-opacity="0.86"/>
</svg>
